PathFileType	4	(X/Y/Z)	70_1_31_p1_0-265.trc
DataRate	CameraRate	NumFrames	NumMarkers	Units	OrigDataRate	OrigDataStartFrame	OrigNumFrames
59.0	59.0	5	27	m	59.0	232	266
Frame#	Time	RHip			RKnee			RAnkle			RBigToe			RSmallToe			RHeel			LHip			LKnee			LAnkle			LBigToe			LSmallToe			LHeel			Neck			Head			Nose			RShoulder			RElbow			RWrist			RThumb			RIndex			RPinky			LShoulder			LElbow			LWrist			LThumb			LIndex			LPinky			
		X1	Y1	Z1	X2	Y2	Z2	X3	Y3	Z3	X4	Y4	Z4	X5	Y5	Z5	X6	Y6	Z6	X7	Y7	Z7	X8	Y8	Z8	X9	Y9	Z9	X10	Y10	Z10	X11	Y11	Z11	X12	Y12	Z12	X13	Y13	Z13	X14	Y14	Z14	X15	Y15	Z15	X16	Y16	Z16	X17	Y17	Z17	X18	Y18	Z18	X19	Y19	Z19	X20	Y20	Z20	X21	Y21	Z21	X22	Y22	Z22	X23	Y23	Z23	X24	Y24	Z24	X25	Y25	Z25	X26	Y26	Z26	X27	Y27	Z27	
232	3.9322033898305087	0.37267062842549276	0.5172501862077495	0.13964639845299404	0.36397190227691434	0.692744465847791	0.5305212485039652	0.36306334970832355	0.7715776607378818	0.9320166903645308	0.32686528362449613	0.6541501309352277	1.0123332567943608	0.39884157856137603	0.6434130053519228	1.0044892056469292	0.36367038749355163	0.8264142679900072	0.9678094113601257	0.14240101723034962	0.5486936826237765	0.14275371405823142	0.14849636262212607	0.7274719254794021	0.5489721367719227	0.17134294149733598	0.8009352124865998	0.9423432512385508	0.16588275997408117	0.6405943872952345	0.9845860383989008	0.10894616666833641	0.7046679945972972	0.9853842448330797	0.19306254015155408	0.8263160187604011	0.9775780315928737	0.2516429292241474	0.3887722963302449	-0.4381726120349824	0.2384592458755874	0.21196538307133622	-0.6760798762600764	0.2368540268331588	0.19868173532819774	-0.514571644834254	0.42669934761862277	0.3712572482006687	-0.3436799780923971	0.5024221412963094	0.41604002166382265	-0.08141456746291034	0.4774217070088849	0.302728005595532	0.16291239550672473	0.43486924724690984	0.374866442180814	0.28273068660686373	0.45231134242366333	0.36754930555465976	0.2863519654779263	0.5011007979489258	0.33612099202649054	0.2760666809026395	0.0717650592585579	0.44259525177044406	-0.35248122514761837	0.02790827656771014	0.4797005990245036	-0.09391820849942419	0.009400541645809663	0.45376866828372675	0.14621886679228605	0.029213634791237307	0.4589657464687822	0.24045989201347825	0.01581267085577439	0.43534618218879556	0.2743012562569345	-0.00837175730452585	0.473956287107065	0.2717186620468589
233	3.9491525423728815	0.374253088109561	0.5022547276632865	0.13827807445437493	0.3699514353771994	0.6959316360680686	0.5351298578705257	0.363045378099902	0.7713960133548086	0.9319182091172044	0.326982267314876	0.6543232335572534	1.012223914728857	0.3929916634831705	0.6292098475129677	0.9993488093138713	0.36494042546986843	0.8282816143415174	0.9727246491291026	0.1375950614424147	0.5356300193925438	0.1451888911414714	0.14952787708860868	0.7300574089710762	0.5540267643882856	0.17269019913415667	0.8035638077948607	0.9483999187821869	0.16574431098515774	0.6401355671814533	0.9844535797017864	0.10446892197110856	0.703623625018443	0.9811204449679553	0.19587364317942962	0.8082404669031533	0.9720787394684062	0.25171682589955907	0.3886119589088396	-0.4382545739226489	0.23849032977056622	0.21206259996097504	-0.6761013730686143	0.23077932990050093	0.20031261909203568	-0.5145649338544789	0.421191701553396	0.35950495413467926	-0.34275981836987907	0.5024623632958346	0.4165675080308991	-0.07793027859267597	0.478829766485108	0.3129188067028958	0.16399385686579201	0.4439141330268967	0.38650881797589365	0.28872002404533187	0.45380743099434945	0.3541559376064611	0.28547047133427045	0.5012299845596717	0.33761619615662686	0.28036329956592404	0.07171059058821742	0.4430205738099853	-0.3534625498573394	0.027663894634296055	0.47949576261912746	-0.0978665300451288	0.009378843030146869	0.45274640536297	0.13874997581724002	0.02559701687616064	0.4472548255474467	0.2393841877725174	0.01468004789717992	0.43498031094614514	0.2667533055975697	-0.0213594697755901	0.47644557793972164	0.26769622006458293
234	3.9661016949152543	0.37260858322817975	0.5168444212830683	0.1397046481602536	0.368825863899783	0.6938049833454266	0.5307041741408347	0.3690078753390326	0.7862850578680614	0.9366176252862121	0.3269764878002124	0.654294692774486	1.0121137720713271	0.3915327309271573	0.6266108813724621	0.9938935138963461	0.37149066102833045	0.8233299330005048	0.9668449360930366	0.14202058866456893	0.5496283687345586	0.14259512897180102	0.1495210907845935	0.7298989197472223	0.5541412781568562	0.1713873778573283	0.8008457816744121	0.9424978059204037	0.16584271743093146	0.6407860211827825	0.9845915916116135	0.1045811023336871	0.7045743701188614	0.9813193354544393	0.19606223027558964	0.8086862030576404	0.9717928096245165	0.2517279785481459	0.38856343088790296	-0.4382218289583546	0.240578920911203	0.2338063187297334	-0.6832988008259043	0.23073720513980264	0.20027568960545425	-0.5146632939414857	0.421316228407751	0.359535214203267	-0.3426422489201902	0.498028369972938	0.41735584562800204	-0.07774616286414793	0.478707238696526	0.3140904235850401	0.17159992952105466	0.44419184335482487	0.3868130735008501	0.28936110832991785	0.4551620683206891	0.3558757904506171	0.2900595466277509	0.5012739248327058	0.33684743126410904	0.28053606223776933	0.07215253459040638	0.4430239132673163	-0.35299924357283535	0.027353154332363714	0.47952959841441967	-0.09821331947996786	0.008397933972078227	0.45013349428475136	0.13499089300853342	0.020481394224021714	0.43149182932185337	0.23387999441742888	0.010663636065073383	0.4237749769629512	0.26422849737233617	-0.0221861924428842	0.4752599788160332	0.2659389365208042
235	3.983050847457627	0.372553290923293	0.5166524622479786	0.13963408053454437	0.3701392476616227	0.696094376503754	0.535212070844777	0.36305204039800665	0.7713297930806824	0.9318751484384046	0.32699565213379744	0.6543315422330764	1.0120490480158295	0.3915895886088699	0.6265610501455414	0.9938335453789818	0.3656106709959182	0.8081952037523409	0.9618381754060527	0.14199763408427363	0.5496096251713126	0.1425348958818394	0.15056685046546142	0.7326300218225357	0.5592422572285062	0.17269666868632502	0.8034414777238065	0.94843716433807	0.16710509666182366	0.6432252625780572	0.989069057632079	0.10889162878662169	0.7061220777353456	0.9818454570200359	0.19602462077682786	0.8081798901101099	0.9717392176307178	0.2517436585172961	0.3885003364730216	-0.43832435367588163	0.23652310668422946	0.22327859702997357	-0.6809525271762157	0.22666035708462026	0.199799183137884	-0.5144399569749503	0.42131850287845607	0.3595453481153553	-0.3426740299299459	0.4938323767379246	0.4172424717326972	-0.0738113774871184	0.47343414525599914	0.32695271481061544	0.17666663846172725	0.4441996608688658	0.38629222648199	0.2935074940138587	0.4542425514319978	0.36988092426642594	0.2964584007576525	0.5117952366156772	0.34881627553141614	0.2820579519630268	0.0746936522844775	0.42926442661326736	-0.35574054702528574	0.027434872833994633	0.4799160063945922	-0.09821633837163775	0.0039051319894723054	0.44835502446083314	0.1347925380298187	0.021087086986147925	0.4330573226289422	0.2339199113089208	0.002583617071737229	0.41141496303116576	0.25509766551754715	-0.031537382719921445	0.46230322986654027	0.2586050615494875
236	4.0	0.374262381648006	0.5022575724094054	0.13837308136794724	0.3750807873922424	0.6971274680858788	0.5352976767763317	0.36827695757907447	0.7878469135965237	0.9413962815666367	0.32708103114631215	0.6539972936801828	1.011981752720896	0.3916720073393268	0.6266235412732521	0.9938372452378318	0.36554727382431296	0.8081339870433367	0.9619150866035759	0.14199003029156754	0.5501281478069618	0.13905007996725816	0.14947087286255611	0.7300290479616599	0.554096915465108	0.17114400134403335	0.801647940208179	0.9388477532999845	0.16495679395446158	0.6423048793908062	0.9894825990052928	0.10791584786744499	0.7075889583623752	0.9865414805406097	0.19502862259966375	0.8101820807498537	0.9762805772862354	0.2517293045871439	0.3885455324525657	-0.43828071031523047	0.23656175639441435	0.22338878543175952	-0.6809518897049089	0.22661311228357148	0.19981240700775113	-0.514482651404728	0.4213177519551156	0.35956829155066966	-0.3426861586710624	0.4875048753132877	0.4318606608819396	-0.07303024731213864	0.4742976893377682	0.3283976952885353	0.1805130154323947	0.44240226602954513	0.4015589699818779	0.2953867631286383	0.4525584951237627	0.38439516415560004	0.29897859823571554	0.511275101123457	0.34845582128435365	0.2823046767928039	0.07476093543446198	0.42940678736065657	-0.3598577202801663	0.027243177102783237	0.4795777081763132	-0.09824242559962493	0.0003201981520939282	0.43662248049503644	0.1339066820636322	0.01558356524345333	0.4295409982360154	0.22986013136242656	-0.006381796754792515	0.39588698982952936	0.24571875611710728	-0.032054998153438014	0.45815971386132426	0.2536375929213803
